<?xml version="1.0" standalone="no"?><svg xmlns="http://www.w3.org/2000/svg" viewBox="0 0 1440 320"><path fill="#f3f4f5" fill-opacity="1" d="M0,224L34.3,229.3C68.6,235,137,245,206,224C274.3,203,343,149,411,154.7C480,160,549,224,617,234.7C685.7,245,754,203,823,181.3C891.4,160,960,160,1029,186.7C1097.1,213,1166,267,1234,266.7C1302.9,267,1371,213,1406,186.7L1440,160L1440,320L1405.7,320C1371.4,320,1303,320,1234,320C1165.7,320,1097,320,1029,320C960,320,891,320,823,320C754.3,320,686,320,617,320C548.6,320,480,320,411,320C342.9,320,274,320,206,320C137.1,320,69,320,34,320L0,320Z"></path></svg>